<svg aria-hidden="true" style="position:absolute;width:0;height:0;overflow:hidden" xmlns="http://www.w3.org/2000/svg">
  <defs>
    <symbol id="burger" viewBox="0 0 34 32">
<path fill="#fff" style="fill: var(--color8, #fff)" d="M9.898 15.273c-0.725 0-1.312 0.588-1.312 1.312v0c0 0.725 0.588 1.312 1.312 1.312h14.546c0.725 0 1.312-0.588 1.312-1.312v0c0-0.725-0.588-1.312-1.312-1.312h-14.546zM0 23.242c0 0.742 0.602 1.344 1.344 1.344h23.069c0.742 0 1.344-0.602 1.344-1.344v0c0-0.742-0.602-1.344-1.344-1.344h-23.069c-0.742 0-1.344 0.602-1.344 1.344v0zM9.929 8.585c-0.742 0-1.344 0.602-1.344 1.344v0c0 0.742 0.602 1.344 1.344 1.344h14.483c0.742 0 1.344-0.602 1.344-1.344v0c0-0.742-0.602-1.344-1.344-1.344h-14.483z"></path>
</symbol>
<symbol id="close" viewBox="0 0 32 32">
<path fill="none" stroke="#fbfbfb" style="stroke: var(--color8, #fbfbfb)" stroke-linejoin="round" stroke-linecap="round" stroke-miterlimit="4" stroke-width="3.2" d="M24 8l-16 16"></path>
<path fill="none" stroke="#fbfbfb" style="stroke: var(--color8, #fbfbfb)" stroke-linejoin="round" stroke-linecap="round" stroke-miterlimit="4" stroke-width="3.2" d="M8 8l16 16"></path>
</symbol>

    <symbol id="icon-group-18" viewBox="0 0 38 24">
      <path fill="#b4019c" style="fill: var(--color1, #b4019c)" d="M25.82 10.184c2.409 1.975 2.779 5.551 0.827 7.988s-5.486 2.812-7.895 0.837c-2.409-1.975-2.779-5.551-0.827-7.988s5.486-2.812 7.895-0.837z"></path>
      <path fill="#b44c01" style="fill: var(--color2, #b44c01)" d="M32.324 9.661c2.409 1.975 2.779 5.551 0.827 7.988s-5.486 2.812-7.895 0.837c-2.409-1.975-2.779-5.551-0.827-7.988s5.486-2.812 7.895-0.837z"></path>
      <path fill="#01b49f" style="fill: var(--color3, #01b49f)" d="M20.195 5.040c2.409 1.975 2.779 5.551 0.827 7.988s-5.486 2.812-7.895 0.837c-2.409-1.975-2.779-5.551-0.827-7.988s5.486-2.812 7.895-0.837z"></path>
      <path fill="#3cc064" style="fill: var(--color4, #3cc064)" d="M11.481 7.47c2.409 1.975 2.779 5.551 0.827 7.988s-5.486 2.812-7.895 0.837c-2.409-1.975-2.779-5.551-0.827-7.988s5.486-2.812 7.895-0.837z"></path>
      <path fill="#4c01b4" style="fill: var(--color5, #4c01b4)" d="M29.092 13.476c1.325 1.086 1.529 3.054 0.455 4.395s-3.018 1.547-4.343 0.461c-1.325-1.086-1.529-3.054-0.455-4.395s3.018-1.547 4.343-0.461z"></path>
      <path fill="#01b437" style="fill: var(--color6, #01b437)" d="M26.646 5.877c2.409 1.975 2.779 5.551 0.827 7.988s-5.486 2.812-7.895 0.837c-2.409-1.975-2.779-5.551-0.827-7.988s5.486-2.812 7.895-0.837z"></path>
      <path fill="#0178b4" style="fill: var(--color7, #0178b4)" d="M31.498 5.875c2.409 1.975 2.779 5.551 0.827 7.988s-5.486 2.812-7.895 0.837c-2.409-1.975-2.779-5.551-0.827-7.988s5.486-2.812 7.895-0.837z"></path>
    </symbol>
    <symbol id="arrow" viewBox="0 0 18 18">
<path d="M8.29 1.289l-5.996 6c-0.391 0.391-0.391 1.026 0 1.417s1.025 0.391 1.417 0l4.29-4.293v11.59c0 0.553 0.448 1.001 1 1.001s1-0.448 1-1.001v-11.59l4.29 4.292c0.391 0.391 1.025 0.391 1.417-0.001s0.391-1.026 0-1.417l-5.997-6c-0.196-0.196-0.453-0.294-0.71-0.294s-0.514 0.097-0.71 0.294z"></path>
</symbol>
<symbol id="instagram" viewBox="0 0 32 32">
<path d="M16 2.881c4.275 0 4.781 0.019 6.462 0.094 1.563 0.069 2.406 0.331 2.969 0.55 0.744 0.288 1.281 0.638 1.837 1.194 0.563 0.563 0.906 1.094 1.2 1.838 0.219 0.563 0.481 1.412 0.55 2.969 0.075 1.688 0.094 2.194 0.094 6.463s-0.019 4.781-0.094 6.463c-0.069 1.563-0.331 2.406-0.55 2.969-0.288 0.744-0.637 1.281-1.194 1.837-0.563 0.563-1.094 0.906-1.837 1.2-0.563 0.219-1.413 0.481-2.969 0.55-1.688 0.075-2.194 0.094-6.463 0.094s-4.781-0.019-6.463-0.094c-1.563-0.069-2.406-0.331-2.969-0.55-0.744-0.288-1.281-0.637-1.838-1.194-0.563-0.563-0.906-1.094-1.2-1.837-0.219-0.563-0.481-1.413-0.55-2.969-0.075-1.688-0.094-2.194-0.094-6.463s0.019-4.781 0.094-6.463c0.069-1.563 0.331-2.406 0.55-2.969 0.288-0.744 0.638-1.281 1.194-1.838 0.563-0.563 1.094-0.906 1.838-1.2 0.563-0.219 1.412-0.481 2.969-0.55 1.681-0.075 2.188-0.094 6.463-0.094zM16 0c-4.344 0-4.887 0.019-6.594 0.094-1.7 0.075-2.869 0.35-3.881 0.744-1.056 0.412-1.95 0.956-2.837 1.85-0.894 0.888-1.438 1.781-1.85 2.831-0.394 1.019-0.669 2.181-0.744 3.881-0.075 1.713-0.094 2.256-0.094 6.6s0.019 4.887 0.094 6.594c0.075 1.7 0.35 2.869 0.744 3.881 0.413 1.056 0.956 1.95 1.85 2.837 0.887 0.887 1.781 1.438 2.831 1.844 1.019 0.394 2.181 0.669 3.881 0.744 1.706 0.075 2.25 0.094 6.594 0.094s4.888-0.019 6.594-0.094c1.7-0.075 2.869-0.35 3.881-0.744 1.050-0.406 1.944-0.956 2.831-1.844s1.438-1.781 1.844-2.831c0.394-1.019 0.669-2.181 0.744-3.881 0.075-1.706 0.094-2.25 0.094-6.594s-0.019-4.887-0.094-6.594c-0.075-1.7-0.35-2.869-0.744-3.881-0.394-1.063-0.938-1.956-1.831-2.844-0.887-0.887-1.781-1.438-2.831-1.844-1.019-0.394-2.181-0.669-3.881-0.744-1.712-0.081-2.256-0.1-6.6-0.1v0z"></path>
<path d="M16 7.781c-4.537 0-8.219 3.681-8.219 8.219s3.681 8.219 8.219 8.219 8.219-3.681 8.219-8.219c0-4.537-3.681-8.219-8.219-8.219zM16 21.331c-2.944 0-5.331-2.387-5.331-5.331s2.387-5.331 5.331-5.331c2.944 0 5.331 2.387 5.331 5.331s-2.387 5.331-5.331 5.331z"></path>
<path d="M26.462 7.456c0 1.060-0.859 1.919-1.919 1.919s-1.919-0.859-1.919-1.919c0-1.060 0.859-1.919 1.919-1.919s1.919 0.859 1.919 1.919z"></path>
</symbol>
<symbol id="facebook" viewBox="0 0 32 32">
<path d="M29 0h-26c-1.65 0-3 1.35-3 3v26c0 1.65 1.35 3 3 3h13v-14h-4v-4h4v-2c0-3.306 2.694-6 6-6h4v4h-4c-1.1 0-2 0.9-2 2v2h6l-1 4h-5v14h9c1.65 0 3-1.35 3-3v-26c0-1.65-1.35-3-3-3z"></path>
</symbol>
  </defs>
</svg>
