<svg aria-hidden="true" style="position:absolute;width:0;height:0;overflow:hidden" xmlns="http://www.w3.org/2000/svg">
  <defs>
    <symbol id="burger" viewBox="0 0 24 24">
      <path d="M21 9h-14c-0.552 0-1 0.448-1 1s0.448 1 1 1h14c0.552 0 1-0.448 1-1s-0.448-1-1-1zM21 5h-18c-0.552 0-1 0.448-1 1s0.448 1 1 1h18c0.552 0 1-0.448 1-1s-0.448-1-1-1zM21 13h-18c-0.552 0-1 0.448-1 1s0.448 1 1 1h18c0.552 0 1-0.448 1-1s-0.448-1-1-1zM21 17h-14c-0.552 0-1 0.448-1 1s0.448 1 1 1h14c0.552 0 1-0.448 1-1s-0.448-1-1-1z"></path>
    </symbol>

    <symbol id="icon-group-18" viewBox="0 0 38 24">
      <path fill="#b4019c" style="fill: var(--color1, #b4019c)" d="M25.82 10.184c2.409 1.975 2.779 5.551 0.827 7.988s-5.486 2.812-7.895 0.837c-2.409-1.975-2.779-5.551-0.827-7.988s5.486-2.812 7.895-0.837z"></path>
      <path fill="#b44c01" style="fill: var(--color2, #b44c01)" d="M32.324 9.661c2.409 1.975 2.779 5.551 0.827 7.988s-5.486 2.812-7.895 0.837c-2.409-1.975-2.779-5.551-0.827-7.988s5.486-2.812 7.895-0.837z"></path>
      <path fill="#01b49f" style="fill: var(--color3, #01b49f)" d="M20.195 5.040c2.409 1.975 2.779 5.551 0.827 7.988s-5.486 2.812-7.895 0.837c-2.409-1.975-2.779-5.551-0.827-7.988s5.486-2.812 7.895-0.837z"></path>
      <path fill="#3cc064" style="fill: var(--color4, #3cc064)" d="M11.481 7.47c2.409 1.975 2.779 5.551 0.827 7.988s-5.486 2.812-7.895 0.837c-2.409-1.975-2.779-5.551-0.827-7.988s5.486-2.812 7.895-0.837z"></path>
      <path fill="#4c01b4" style="fill: var(--color5, #4c01b4)" d="M29.092 13.476c1.325 1.086 1.529 3.054 0.455 4.395s-3.018 1.547-4.343 0.461c-1.325-1.086-1.529-3.054-0.455-4.395s3.018-1.547 4.343-0.461z"></path>
      <path fill="#01b437" style="fill: var(--color6, #01b437)" d="M26.646 5.877c2.409 1.975 2.779 5.551 0.827 7.988s-5.486 2.812-7.895 0.837c-2.409-1.975-2.779-5.551-0.827-7.988s5.486-2.812 7.895-0.837z"></path>
      <path fill="#0178b4" style="fill: var(--color7, #0178b4)" d="M31.498 5.875c2.409 1.975 2.779 5.551 0.827 7.988s-5.486 2.812-7.895 0.837c-2.409-1.975-2.779-5.551-0.827-7.988s5.486-2.812 7.895-0.837z"></path>
    </symbol>
  </defs>
</svg>
