<svg aria-hidden="true" style="position:absolute;width:0;height:0;overflow:hidden" xmlns="http://www.w3.org/2000/svg">
  <defs>
    <symbol id="burger" viewBox="0 0 34 32">
<path fill="#fff" style="fill: var(--color8, #fff)" d="M9.898 15.273c-0.725 0-1.312 0.588-1.312 1.312v0c0 0.725 0.588 1.312 1.312 1.312h14.546c0.725 0 1.312-0.588 1.312-1.312v0c0-0.725-0.588-1.312-1.312-1.312h-14.546zM0 23.242c0 0.742 0.602 1.344 1.344 1.344h23.069c0.742 0 1.344-0.602 1.344-1.344v0c0-0.742-0.602-1.344-1.344-1.344h-23.069c-0.742 0-1.344 0.602-1.344 1.344v0zM9.929 8.585c-0.742 0-1.344 0.602-1.344 1.344v0c0 0.742 0.602 1.344 1.344 1.344h14.483c0.742 0 1.344-0.602 1.344-1.344v0c0-0.742-0.602-1.344-1.344-1.344h-14.483z"></path>
</symbol>
<symbol id="close" viewBox="0 0 32 32">
<path fill="none" stroke="#fbfbfb" style="stroke: var(--color8, #fbfbfb)" stroke-linejoin="round" stroke-linecap="round" stroke-miterlimit="4" stroke-width="3.2" d="M24 8l-16 16"></path>
<path fill="none" stroke="#fbfbfb" style="stroke: var(--color8, #fbfbfb)" stroke-linejoin="round" stroke-linecap="round" stroke-miterlimit="4" stroke-width="3.2" d="M8 8l16 16"></path>
</symbol>

    <symbol id="icon-group-18" viewBox="0 0 38 24">
      <path fill="#b4019c" style="fill: var(--color1, #b4019c)" d="M25.82 10.184c2.409 1.975 2.779 5.551 0.827 7.988s-5.486 2.812-7.895 0.837c-2.409-1.975-2.779-5.551-0.827-7.988s5.486-2.812 7.895-0.837z"></path>
      <path fill="#b44c01" style="fill: var(--color2, #b44c01)" d="M32.324 9.661c2.409 1.975 2.779 5.551 0.827 7.988s-5.486 2.812-7.895 0.837c-2.409-1.975-2.779-5.551-0.827-7.988s5.486-2.812 7.895-0.837z"></path>
      <path fill="#01b49f" style="fill: var(--color3, #01b49f)" d="M20.195 5.040c2.409 1.975 2.779 5.551 0.827 7.988s-5.486 2.812-7.895 0.837c-2.409-1.975-2.779-5.551-0.827-7.988s5.486-2.812 7.895-0.837z"></path>
      <path fill="#3cc064" style="fill: var(--color4, #3cc064)" d="M11.481 7.47c2.409 1.975 2.779 5.551 0.827 7.988s-5.486 2.812-7.895 0.837c-2.409-1.975-2.779-5.551-0.827-7.988s5.486-2.812 7.895-0.837z"></path>
      <path fill="#4c01b4" style="fill: var(--color5, #4c01b4)" d="M29.092 13.476c1.325 1.086 1.529 3.054 0.455 4.395s-3.018 1.547-4.343 0.461c-1.325-1.086-1.529-3.054-0.455-4.395s3.018-1.547 4.343-0.461z"></path>
      <path fill="#01b437" style="fill: var(--color6, #01b437)" d="M26.646 5.877c2.409 1.975 2.779 5.551 0.827 7.988s-5.486 2.812-7.895 0.837c-2.409-1.975-2.779-5.551-0.827-7.988s5.486-2.812 7.895-0.837z"></path>
      <path fill="#0178b4" style="fill: var(--color7, #0178b4)" d="M31.498 5.875c2.409 1.975 2.779 5.551 0.827 7.988s-5.486 2.812-7.895 0.837c-2.409-1.975-2.779-5.551-0.827-7.988s5.486-2.812 7.895-0.837z"></path>
    </symbol>
    <symbol id="arrow" viewBox="0 0 18 18">
<path d="M8.29 1.289l-5.996 6c-0.391 0.391-0.391 1.026 0 1.417s1.025 0.391 1.417 0l4.29-4.293v11.59c0 0.553 0.448 1.001 1 1.001s1-0.448 1-1.001v-11.59l4.29 4.292c0.391 0.391 1.025 0.391 1.417-0.001s0.391-1.026 0-1.417l-5.997-6c-0.196-0.196-0.453-0.294-0.71-0.294s-0.514 0.097-0.71 0.294z"></path>
</symbol>
  </defs>
</svg>
